<mxfile host="app.diagrams.net" modified="2022-09-11T21:36:00.764Z" agent="5.0 (X11; Linux x86_64) AppleWebKit/537.36 (KHTML, like Gecko) Chrome/105.0.0.0 Safari/537.36" etag="luG3lxyUUV9zurKXbfVd" version="20.3.0" type="github">
  <diagram id="S-h85ZhSONqcsk4opssn" name="PÃ¡gina-1">
    <mxGraphModel dx="1497" dy="797" grid="1" gridSize="10" guides="1" tooltips="1" connect="1" arrows="1" fold="1" page="1" pageScale="1" pageWidth="827" pageHeight="1169" math="0" shadow="0">
      <root>
        <mxCell id="0" />
        <mxCell id="1" parent="0" />
        <mxCell id="GmF-pUQcsCZysbQerN3h-1" value="&lt;font style=&quot;font-size: 24px;&quot;&gt;Objetivo: Chupar uma bala.&lt;/font&gt;" style="strokeWidth=2;html=1;shape=mxgraph.flowchart.annotation_2;align=left;labelPosition=right;pointerEvents=1;" vertex="1" parent="1">
          <mxGeometry x="30" y="30" width="50" height="100" as="geometry" />
        </mxCell>
        <mxCell id="GmF-pUQcsCZysbQerN3h-7" value="" style="edgeStyle=orthogonalEdgeStyle;rounded=0;orthogonalLoop=1;jettySize=auto;html=1;fontSize=24;" edge="1" parent="1" source="GmF-pUQcsCZysbQerN3h-2" target="GmF-pUQcsCZysbQerN3h-4">
          <mxGeometry relative="1" as="geometry" />
        </mxCell>
        <mxCell id="GmF-pUQcsCZysbQerN3h-2" value="Inicio" style="strokeWidth=2;html=1;shape=mxgraph.flowchart.terminator;whiteSpace=wrap;fontSize=24;fillColor=#ffe6cc;strokeColor=#d79b00;" vertex="1" parent="1">
          <mxGeometry x="350" y="120" width="100" height="60" as="geometry" />
        </mxCell>
        <mxCell id="GmF-pUQcsCZysbQerN3h-3" value="Fim" style="strokeWidth=2;html=1;shape=mxgraph.flowchart.terminator;whiteSpace=wrap;fontSize=24;fillColor=#ffe6cc;strokeColor=#d79b00;" vertex="1" parent="1">
          <mxGeometry x="350" y="720" width="100" height="60" as="geometry" />
        </mxCell>
        <mxCell id="GmF-pUQcsCZysbQerN3h-8" value="" style="edgeStyle=orthogonalEdgeStyle;rounded=0;orthogonalLoop=1;jettySize=auto;html=1;fontSize=24;" edge="1" parent="1" source="GmF-pUQcsCZysbQerN3h-4" target="GmF-pUQcsCZysbQerN3h-5">
          <mxGeometry relative="1" as="geometry" />
        </mxCell>
        <mxCell id="GmF-pUQcsCZysbQerN3h-4" value="Pegar uma bala." style="rounded=1;whiteSpace=wrap;html=1;absoluteArcSize=1;arcSize=14;strokeWidth=3;fontSize=24;fillColor=#d5e8d4;strokeColor=#82b366;shadow=0;sketch=0;glass=0;" vertex="1" parent="1">
          <mxGeometry x="300" y="240" width="200" height="100" as="geometry" />
        </mxCell>
        <mxCell id="GmF-pUQcsCZysbQerN3h-9" value="" style="edgeStyle=orthogonalEdgeStyle;rounded=0;orthogonalLoop=1;jettySize=auto;html=1;fontSize=24;" edge="1" parent="1" source="GmF-pUQcsCZysbQerN3h-5" target="GmF-pUQcsCZysbQerN3h-6">
          <mxGeometry relative="1" as="geometry" />
        </mxCell>
        <mxCell id="GmF-pUQcsCZysbQerN3h-5" value="Tirar a embalagem." style="rounded=1;whiteSpace=wrap;html=1;absoluteArcSize=1;arcSize=14;strokeWidth=3;fontSize=24;fillColor=#d5e8d4;strokeColor=#82b366;" vertex="1" parent="1">
          <mxGeometry x="300" y="400" width="200" height="100" as="geometry" />
        </mxCell>
        <mxCell id="GmF-pUQcsCZysbQerN3h-11" value="" style="edgeStyle=orthogonalEdgeStyle;rounded=0;orthogonalLoop=1;jettySize=auto;html=1;fontSize=24;" edge="1" parent="1" source="GmF-pUQcsCZysbQerN3h-6" target="GmF-pUQcsCZysbQerN3h-3">
          <mxGeometry relative="1" as="geometry" />
        </mxCell>
        <mxCell id="GmF-pUQcsCZysbQerN3h-6" value="Colocar a bala na boca." style="rounded=1;whiteSpace=wrap;html=1;absoluteArcSize=1;arcSize=14;strokeWidth=3;fontSize=24;fillColor=#d5e8d4;strokeColor=#82b366;fillStyle=auto;" vertex="1" parent="1">
          <mxGeometry x="300" y="560" width="200" height="100" as="geometry" />
        </mxCell>
      </root>
    </mxGraphModel>
  </diagram>
</mxfile>
